<?xml version="1.0" encoding="UTF-8" standalone="no"?>
<svg
   width="243.84mm"
   height="128.5mm"
   viewBox="0 0 243.84 128.5"
   version="1.1"
   id="svg5"
   inkscape:version="1.1.2 (0a00cf5339, 2022-02-04)"
   sodipodi:docname="beatSlicer.svg"
   xmlns:inkscape="http://www.inkscape.org/namespaces/inkscape"
   xmlns:sodipodi="http://sodipodi.sourceforge.net/DTD/sodipodi-0.dtd"
   xmlns="http://www.w3.org/2000/svg"
   xmlns:svg="http://www.w3.org/2000/svg">
  <defs
     id="defs24">
    <rect
       x="141.16931"
       y="23.600217"
       width="57.877125"
       height="44.916979"
       id="rect66241" />
    <rect
       x="12.177739"
       y="5.7397506"
       width="71.43017"
       height="85.750992"
       id="rect7157" />
  </defs>
  <sodipodi:namedview
     id="namedview7"
     pagecolor="#ffffff"
     bordercolor="#111111"
     borderopacity="1"
     inkscape:pageshadow="0"
     inkscape:pageopacity="1"
     inkscape:pagecheckerboard="false"
     inkscape:document-units="mm"
     showgrid="true"
     inkscape:zoom="0.70710678"
     inkscape:cx="195.16147"
     inkscape:cy="-16.970563"
     inkscape:window-width="1040"
     inkscape:window-height="935"
     inkscape:window-x="960"
     inkscape:window-y="32"
     inkscape:window-maximized="0"
     inkscape:current-layer="components"
     fit-margin-top="0"
     fit-margin-left="0"
     fit-margin-right="0"
     fit-margin-bottom="0"
     units="mm"
     inkscape:snap-others="false"
     inkscape:object-nodes="false"
     inkscape:snap-nodes="false"
     inkscape:snap-global="false">
    <inkscape:grid
       type="xygrid"
       id="grid6" />
  </sodipodi:namedview>
  <g
     inkscape:groupmode="layer"
     id="layer3"
     inkscape:label="background">
    <rect
       style="display:inline;opacity:0.98;fill:#ffffff;stroke:#1a1a1a;stroke-width:0.30128"
       id="rect106883"
       width="244.37784"
       height="128.1647"
       x="0.041558322"
       y="0.094080552" />
  </g>
  <g
     inkscape:groupmode="layer"
     id="layer2"
     inkscape:label="Icons">
    <rect
       style="opacity:0.98;fill:#1a1a1a;stroke:#1a1a1a;stroke-width:0.144731"
       id="rect104091"
       width="20.553732"
       height="20.292723"
       x="39.033085"
       y="98.944016" />
  </g>
  <g
     inkscape:groupmode="layer"
     id="layer1"
     inkscape:label="Labels">
    <g
       aria-label="L"
       id="AUDIO_INPUT_LEFT_LABEL"
       style="font-size:5.64444px;line-height:1.25;stroke-width:0.264583">
      <path
         d="m 16.80614,14.170829 q 0.07902,0 0.07902,0.07902 v 0.197556 q 0,0.07902 -0.07902,0.07902 h -1.744132 q -0.07902,0 -0.124178,-0.0056 -0.03951,0 -0.06209,-0.02258 -0.01693,-0.01693 -0.02258,-0.06209 0,-0.04516 0,-0.124178 v -3.555997 q 0,-0.07902 0.07902,-0.07902 h 0.259644 q 0.07902,0 0.07902,0.07902 v 3.414886 z"
         style="font-family:NanumGothicCoding;-inkscape-font-specification:NanumGothicCoding"
         id="path107107" />
    </g>
    <g
       aria-label="ENV"
       id="ENV_LABEL"
       style="font-size:5.64444px;line-height:1.25;stroke-width:0.264583">
      <path
         d="m 38.455483,35.605258 q -0.118533,0 -0.141111,-0.02258 -0.01693,-0.01693 -0.01693,-0.135467 v -3.550353 q 0,-0.107244 0.01693,-0.124177 0.02258,-0.02258 0.129823,-0.02258 h 1.75542 q 0.07902,0 0.07902,0.07902 v 0.197555 q 0,0.07902 -0.07902,0.07902 h -1.490132 v 1.320799 h 1.405466 q 0.07902,0 0.07902,0.07902 v 0.2032 q 0,0.07902 -0.07902,0.07902 h -1.405466 v 1.456265 h 1.557866 q 0.07902,0 0.07902,0.07902 v 0.2032 q 0,0.07902 -0.07902,0.07902 z"
         style="font-family:NanumGothicCoding;-inkscape-font-specification:NanumGothicCoding"
         id="path107216" />
      <path
         d="m 41.345426,35.599614 h -0.225778 q -0.07902,0 -0.07902,-0.07902 V 31.90815 q 0,-0.118533 0.01693,-0.135466 0.02258,-0.02258 0.141111,-0.02258 h 0.242711 q 0.07338,0 0.09596,0.01693 0.02822,0.01129 0.05644,0.06209 l 1.016,2.793998 0.169333,0.496711 v -3.290709 q 0,-0.07902 0.07902,-0.07902 h 0.225778 q 0.07902,0 0.07902,0.07902 v 3.612442 q 0,0.118533 -0.02258,0.135466 -0.01693,0.02258 -0.135467,0.02258 h -0.299155 q -0.04516,0 -0.06773,-0.01129 -0.01693,-0.01129 -0.04516,-0.05644 l -1.010354,-2.765776 -0.158045,-0.462844 v 3.217331 q 0,0.07902 -0.07902,0.07902 z"
         style="font-family:NanumGothicCoding;-inkscape-font-specification:NanumGothicCoding"
         id="path107218" />
      <path
         d="m 45.719856,31.829128 q 0.01129,-0.03387 0.03951,-0.05644 0.02822,-0.02258 0.06209,-0.02258 h 0.259645 q 0.03387,0 0.0508,0.02822 0.01693,0.02258 0.0056,0.0508 l -0.976488,3.697108 q -0.01693,0.04516 -0.03951,0.05645 -0.01693,0.01693 -0.06209,0.01693 h -0.310444 q -0.04516,0 -0.06773,-0.01693 -0.01693,-0.01129 -0.03387,-0.05645 l -0.942622,-3.697108 q -0.01129,-0.02822 0.0056,-0.0508 0.01693,-0.02822 0.0508,-0.02822 h 0.259644 q 0.06773,0 0.1016,0.07902 l 0.716844,2.929464 q 0.01129,0.06209 0.02258,0.112889 0.01129,0.04516 0.02258,0.09031 0.01129,0.0508 0.02258,0.1016 0.01129,-0.0508 0.02258,-0.1016 0.01129,-0.04516 0.02258,-0.09031 0.01129,-0.0508 0.02822,-0.112889 z"
         style="font-family:NanumGothicCoding;-inkscape-font-specification:NanumGothicCoding"
         id="path107220" />
    </g>
    <g
       aria-label="SEQ"
       id="SLICE_SEQ_LABEL"
       style="font-size:5.64444px;line-height:1.25;stroke-width:0.264583">
      <path
         d="m 21.599514,60.26834 q -0.08467,-0.02822 -0.06773,-0.09596 l 0.02258,-0.259644 q 0.01129,-0.03951 0.03387,-0.05644 0.02258,-0.01693 0.05644,0.0056 0.180623,0.1016 0.344311,0.146755 0.163689,0.04516 0.400756,0.04516 0.361244,0 0.587021,-0.197555 0.231422,-0.2032 0.231422,-0.513644 0,-0.180623 -0.124177,-0.333022 -0.118534,-0.1524 -0.327378,-0.287867 -0.186266,-0.124178 -0.389466,-0.242711 -0.2032,-0.118533 -0.389467,-0.254 -0.186266,-0.141111 -0.327377,-0.338666 -0.135467,-0.197555 -0.135467,-0.4572 0,-0.253999 0.09031,-0.44591 0.09596,-0.197556 0.254,-0.327378 0.163689,-0.135467 0.389467,-0.191911 0.225777,-0.06209 0.462844,-0.06209 0.169333,0 0.310444,0.02258 0.146755,0.02258 0.338666,0.09596 0.07902,0.02258 0.06773,0.09031 l -0.04516,0.225777 q -0.01693,0.09031 -0.09031,0.0508 -0.146755,-0.06773 -0.287866,-0.09596 -0.141111,-0.02822 -0.299156,-0.02822 -0.174977,0 -0.327377,0.04516 -0.1524,0.03951 -0.248356,0.118533 -0.09031,0.07902 -0.158044,0.197556 -0.06209,0.118533 -0.06209,0.287866 0,0.135467 0.06773,0.254 0.06773,0.118533 0.197556,0.225777 0.135466,0.107245 0.254,0.180623 0.124177,0.07338 0.259644,0.158044 0.180622,0.112889 0.338666,0.220133 0.163689,0.107244 0.293511,0.237066 0.135467,0.124178 0.208845,0.287867 0.07338,0.158044 0.07338,0.361244 0,0.259644 -0.107244,0.462844 -0.1016,0.197556 -0.259644,0.327378 -0.1524,0.135466 -0.389467,0.208844 -0.231422,0.07902 -0.479777,0.07902 -0.231422,0 -0.4064,-0.03387 -0.169333,-0.03387 -0.361244,-0.112889 z"
         style="font-family:NanumGothicCoding;-inkscape-font-specification:NanumGothicCoding"
         id="path107241" />
      <path
         d="m 24.55719,60.330429 q -0.118533,0 -0.141111,-0.02258 -0.01693,-0.01693 -0.01693,-0.135467 v -3.550353 q 0,-0.107244 0.01693,-0.124177 0.02258,-0.02258 0.129822,-0.02258 h 1.755421 q 0.07902,0 0.07902,0.07902 v 0.197556 q 0,0.07902 -0.07902,0.07902 H 24.81119 v 1.320799 h 1.405465 q 0.07902,0 0.07902,0.07902 v 0.2032 q 0,0.07902 -0.07902,0.07902 H 24.81119 v 1.456265 h 1.557865 q 0.07902,0 0.07902,0.07902 v 0.203199 q 0,0.07902 -0.07902,0.07902 z"
         style="font-family:NanumGothicCoding;-inkscape-font-specification:NanumGothicCoding"
         id="path107243" />
      <path
         d="m 29.394464,58.405674 q 0.0056,1.467555 -0.632177,1.862666 l 0.795866,0.756355 q 0.02822,0.02822 0.01693,0.0508 -0.0056,0.02822 -0.03951,0.02822 h -0.321733 q -0.112888,0 -0.191911,-0.07902 l -0.632177,-0.626533 q -0.09031,0.01693 -0.186266,0.01693 -1.202266,0 -1.202266,-2.009421 0,-2.00942 1.202266,-2.00942 1.202265,0 1.190976,2.00942 z m -1.196621,1.653821 q 0.807155,0 0.801511,-1.653821 0.0056,-1.65382 -0.801511,-1.65382 -0.807155,0 -0.80151,1.65382 -0.0056,1.653821 0.80151,1.653821 z"
         style="font-family:NanumGothicCoding;-inkscape-font-specification:NanumGothicCoding"
         id="path107245" />
    </g>
    <g
       aria-label="SEL"
       id="SLICE_SEL_LABEL"
       style="font-size:5.64444px;line-height:1.25;stroke-width:0.264583">
      <path
         d="m 39.098001,60.310149 q -0.08467,-0.02822 -0.06773,-0.09596 l 0.02258,-0.259644 q 0.01129,-0.03951 0.03387,-0.05644 0.02258,-0.01693 0.05644,0.0056 0.180622,0.1016 0.344311,0.146756 0.163689,0.04516 0.400755,0.04516 0.361244,0 0.587022,-0.197555 0.231422,-0.2032 0.231422,-0.513644 0,-0.180622 -0.124178,-0.333022 -0.118533,-0.1524 -0.327377,-0.287867 -0.186267,-0.124177 -0.389467,-0.242711 -0.2032,-0.118533 -0.389466,-0.254 -0.186267,-0.141111 -0.327378,-0.338666 -0.135466,-0.197555 -0.135466,-0.4572 0,-0.253999 0.09031,-0.44591 0.09596,-0.197556 0.254,-0.327378 0.163688,-0.135466 0.389466,-0.191911 0.225778,-0.06209 0.462844,-0.06209 0.169333,0 0.310444,0.02258 0.146756,0.02258 0.338667,0.09596 0.07902,0.02258 0.06773,0.09031 l -0.04516,0.225777 q -0.01693,0.09031 -0.09031,0.0508 -0.146755,-0.06773 -0.287866,-0.09596 -0.141111,-0.02822 -0.299155,-0.02822 -0.174978,0 -0.327378,0.04516 -0.1524,0.03951 -0.248355,0.118533 -0.09031,0.07902 -0.158045,0.197556 -0.06209,0.118533 -0.06209,0.287866 0,0.135467 0.06773,0.254 0.06773,0.118533 0.197555,0.225778 0.135467,0.107244 0.254,0.180622 0.124178,0.07338 0.259644,0.158044 0.180622,0.112889 0.338667,0.220133 0.163689,0.107244 0.293511,0.237067 0.135466,0.124177 0.208844,0.287866 0.07338,0.158044 0.07338,0.361244 0,0.259644 -0.107245,0.462844 -0.1016,0.197556 -0.259644,0.327378 -0.1524,0.135466 -0.389466,0.208844 -0.231422,0.07902 -0.479778,0.07902 -0.231422,0 -0.406399,-0.03387 -0.169334,-0.03387 -0.361245,-0.112889 z"
         style="font-family:NanumGothicCoding;-inkscape-font-specification:NanumGothicCoding"
         id="path107266" />
      <path
         d="m 42.055677,60.372238 q -0.118533,0 -0.141111,-0.02258 -0.01693,-0.01693 -0.01693,-0.135467 V 56.66384 q 0,-0.107244 0.01693,-0.124177 0.02258,-0.02258 0.129822,-0.02258 h 1.755421 q 0.07902,0 0.07902,0.07902 v 0.197556 q 0,0.07902 -0.07902,0.07902 h -1.490132 v 1.320799 h 1.405466 q 0.07902,0 0.07902,0.07902 v 0.2032 q 0,0.07902 -0.07902,0.07902 h -1.405466 v 1.456265 h 1.557866 q 0.07902,0 0.07902,0.07902 v 0.203199 q 0,0.07902 -0.07902,0.07902 z"
         style="font-family:NanumGothicCoding;-inkscape-font-specification:NanumGothicCoding"
         id="path107268" />
      <path
         d="m 46.81393,60.010993 q 0.07902,0 0.07902,0.07902 v 0.197555 q 0,0.07902 -0.07902,0.07902 h -1.744132 q -0.07902,0 -0.124178,-0.0056 -0.03951,0 -0.06209,-0.02258 -0.01693,-0.01693 -0.02258,-0.06209 0,-0.04516 0,-0.124178 v -3.555997 q 0,-0.07902 0.07902,-0.07902 h 0.259644 q 0.07902,0 0.07902,0.07902 v 3.414886 z"
         style="font-family:NanumGothicCoding;-inkscape-font-specification:NanumGothicCoding"
         id="path107270" />
    </g>
    <g
       aria-label="MODE"
       id="MODE_LABEL"
       style="font-size:5.64444px;line-height:1.25;stroke-width:0.264583"
       inkscape:transform-center-x="-26.847621"
       inkscape:transform-center-y="-18.687825">
      <path
         d="m 13.64813,77.869347 q 0,0.07902 -0.07902,0.07902 h -0.214489 q -0.07902,0 -0.07902,-0.07902 v -3.403598 l -0.07338,0.428978 q -0.434621,2.793998 -0.434621,2.799642 -0.02822,0.05644 -0.08467,0.05644 h -0.310444 q -0.03951,0 -0.05645,-0.01693 -0.01693,-0.01129 -0.02822,-0.03951 l -0.434622,-2.799642 q -0.01129,-0.08467 -0.03387,-0.197556 -0.02258,-0.118533 -0.03951,-0.231422 v 3.403598 q 0,0.07902 -0.07902,0.07902 H 11.48631 q -0.07902,0 -0.07902,-0.07902 v -3.612442 q 0,-0.118533 0.01693,-0.135467 0.02258,-0.02258 0.141111,-0.02258 h 0.423333 q 0.04516,0 0.06209,0.01129 0.02258,0.01129 0.03951,0.05644 l 0.383822,2.686753 0.05644,0.428978 0.05644,-0.428978 0.383822,-2.692397 q 0.02258,-0.06209 0.09031,-0.06209 h 0.428978 q 0.118533,0 0.135466,0.02258 0.02258,0.01693 0.02258,0.135467 z"
         style="font-family:NanumGothicCoding;-inkscape-font-specification:NanumGothicCoding"
         id="path107291" />
      <path
         d="m 16.543717,76.029259 q 0.01129,2.009421 -1.190977,2.009421 -1.202265,0 -1.202265,-2.009421 0,-2.00942 1.202265,-2.00942 1.202266,0 1.190977,2.00942 z m -1.196621,1.653821 q 0.807155,0 0.80151,-1.653821 0.0056,-1.653821 -0.80151,-1.653821 -0.807155,0 -0.801511,1.653821 -0.0056,1.653821 0.801511,1.653821 z"
         style="font-family:NanumGothicCoding;-inkscape-font-specification:NanumGothicCoding"
         id="path107293" />
      <path
         d="m 18.965171,75.984104 q 0,-0.7112 -0.338666,-1.157111 -0.3048,-0.378177 -0.745066,-0.378177 h -0.389466 v 3.143953 h 0.338666 q 1.123244,-0.09596 1.134532,-1.608665 z m 0.400756,0.02258 q 0,0.513645 -0.112889,0.857955 -0.112889,0.344311 -0.3556,0.615244 -0.231422,0.237067 -0.502355,0.349956 -0.270933,0.118533 -0.575733,0.118533 h -0.603955 q -0.1016,0 -0.118533,-0.02258 -0.01693,-0.01693 -0.01693,-0.135466 v -3.53342 q 0,-0.118533 0.01693,-0.135467 0.01693,-0.02258 0.118533,-0.02258 h 0.688622 q 0.711199,0 1.089377,0.581377 0.372533,0.536222 0.372533,1.326443 z"
         style="font-family:NanumGothicCoding;-inkscape-font-specification:NanumGothicCoding"
         id="path107295" />
      <path
         d="m 20.173071,77.954013 q -0.118533,0 -0.141111,-0.02258 -0.01693,-0.01693 -0.01693,-0.135467 v -3.550353 q 0,-0.107244 0.01693,-0.124178 0.02258,-0.02258 0.129822,-0.02258 h 1.755421 q 0.07902,0 0.07902,0.07902 v 0.197555 q 0,0.07902 -0.07902,0.07902 h -1.490132 v 1.320799 h 1.405465 q 0.07902,0 0.07902,0.07902 v 0.203199 q 0,0.07902 -0.07902,0.07902 h -1.405465 v 1.456265 h 1.557865 q 0.07902,0 0.07902,0.07902 v 0.2032 q 0,0.07902 -0.07902,0.07902 z"
         style="font-family:NanumGothicCoding;-inkscape-font-specification:NanumGothicCoding"
         id="path107297" />
    </g>
    <g
       aria-label="STRETCH"
       id="STRETCH_LABEL"
       style="font-size:5.64444px;line-height:1.25;stroke-width:0.264583"
       inkscape:transform-center-x="-26.847621"
       inkscape:transform-center-y="-18.687825">
      <path
         d="m 11.472553,104.20798 q -0.08467,-0.0282 -0.06773,-0.096 l 0.02258,-0.25964 q 0.01129,-0.0395 0.03387,-0.0564 0.02258,-0.0169 0.05645,0.006 0.180622,0.1016 0.344311,0.14676 0.163688,0.0451 0.400755,0.0451 0.361244,0 0.587022,-0.19755 0.231422,-0.2032 0.231422,-0.51365 0,-0.18062 -0.124178,-0.33302 -0.118533,-0.1524 -0.327378,-0.28787 -0.186266,-0.12417 -0.389466,-0.24271 -0.2032,-0.11853 -0.389466,-0.254 -0.186267,-0.14111 -0.327378,-0.33866 -0.135466,-0.19756 -0.135466,-0.4572 0,-0.254 0.09031,-0.44591 0.09596,-0.19756 0.253999,-0.32738 0.163689,-0.13547 0.389467,-0.19191 0.225777,-0.0621 0.462844,-0.0621 0.169333,0 0.310444,0.0226 0.146756,0.0226 0.338667,0.096 0.07902,0.0226 0.06773,0.0903 l -0.04516,0.22578 q -0.01693,0.0903 -0.09031,0.0508 -0.146755,-0.0677 -0.287866,-0.096 -0.141111,-0.0282 -0.299156,-0.0282 -0.174977,0 -0.327377,0.0452 -0.1524,0.0395 -0.248355,0.11853 -0.09031,0.079 -0.158045,0.19756 -0.06209,0.11853 -0.06209,0.28786 0,0.13547 0.06773,0.254 0.06773,0.11854 0.197555,0.22578 0.135467,0.10724 0.254,0.18062 0.124178,0.0734 0.259644,0.15805 0.180622,0.11289 0.338667,0.22013 0.163688,0.10724 0.29351,0.23707 0.135467,0.12417 0.208845,0.28786 0.07338,0.15805 0.07338,0.36125 0,0.25964 -0.107244,0.46284 -0.1016,0.19756 -0.259644,0.32738 -0.1524,0.13547 -0.389467,0.20884 -0.231422,0.079 -0.479777,0.079 -0.231422,0 -0.4064,-0.0339 -0.169333,-0.0339 -0.361244,-0.11289 z"
         style="font-family:NanumGothicCoding;-inkscape-font-specification:NanumGothicCoding"
         id="path107318" />
      <path
         d="m 15.457517,100.76487 v 3.42053 q 0,0.079 -0.07902,0.079 h -0.259644 q -0.07902,0 -0.07902,-0.079 v -3.42053 h -1.021644 q -0.07902,0 -0.07902,-0.079 v -0.19191 q 0,-0.079 0.07902,-0.079 h 2.472265 q 0.07902,0 0.07902,0.079 v 0.19191 q 0,0.079 -0.07902,0.079 z"
         style="font-family:NanumGothicCoding;-inkscape-font-specification:NanumGothicCoding"
         id="path107320" />
      <path
         d="m 18.736926,101.51558 q 0,-0.22013 -0.05644,-0.34431 -0.0508,-0.12418 -0.174978,-0.22013 -0.118533,-0.096 -0.287866,-0.14111 -0.169333,-0.0452 -0.508,-0.0452 h -0.316089 v 1.524 h 0.327378 q 0.231422,0 0.4064,-0.0452 0.180622,-0.0451 0.321733,-0.14111 0.141111,-0.096 0.214489,-0.24835 0.07338,-0.1524 0.07338,-0.33867 z m 0.671689,2.66982 q 0.01129,0.0282 0,0.0508 -0.01129,0.0282 -0.04516,0.0282 h -0.293511 q -0.08467,0 -0.124177,-0.079 -0.276578,-0.50235 -0.4064,-0.72813 -0.124178,-0.23142 -0.270933,-0.50236 -0.09031,-0.16368 -0.186267,-0.34995 -0.135466,0.0226 -0.265288,0.0339 -0.129823,0.006 -0.259645,0.006 h -0.163689 v 1.54093 q 0,0.079 -0.07902,0.079 h -0.253999 q -0.07902,0 -0.07902,-0.079 v -3.60115 q 0,-0.0621 0,-0.096 0.0056,-0.0339 0.02258,-0.0508 0.01693,-0.0169 0.0508,-0.0169 0.03387,-0.006 0.09596,-0.006 h 0.756355 q 0.321733,0 0.553155,0.0903 0.237066,0.0847 0.389466,0.23706 0.158044,0.14676 0.231422,0.33303 0.07902,0.18626 0.07902,0.44026 0,0.16934 -0.03951,0.31609 -0.03387,0.14111 -0.141111,0.28222 -0.1016,0.14111 -0.237066,0.23707 -0.129822,0.0903 -0.310445,0.14111 z"
         style="font-family:NanumGothicCoding;-inkscape-font-specification:NanumGothicCoding"
         id="path107322" />
      <path
         d="m 20.074648,104.27007 q -0.118533,0 -0.141111,-0.0226 -0.01693,-0.0169 -0.01693,-0.13547 v -3.55035 q 0,-0.10724 0.01693,-0.12418 0.02258,-0.0226 0.129822,-0.0226 h 1.755421 q 0.07902,0 0.07902,0.079 v 0.19755 q 0,0.079 -0.07902,0.079 h -1.490132 v 1.32079 h 1.405465 q 0.07902,0 0.07902,0.079 v 0.2032 q 0,0.079 -0.07902,0.079 h -1.405465 v 1.45626 h 1.557865 q 0.07902,0 0.07902,0.079 v 0.2032 q 0,0.079 -0.07902,0.079 z"
         style="font-family:NanumGothicCoding;-inkscape-font-specification:NanumGothicCoding"
         id="path107324" />
      <path
         d="m 23.924145,100.76487 v 3.42053 q 0,0.079 -0.07902,0.079 h -0.259644 q -0.07902,0 -0.07902,-0.079 v -3.42053 h -1.021644 q -0.07902,0 -0.07902,-0.079 v -0.19191 q 0,-0.079 0.07902,-0.079 h 2.472265 q 0.07902,0 0.07902,0.079 v 0.19191 q 0,0.079 -0.07902,0.079 z"
         style="font-family:NanumGothicCoding;-inkscape-font-specification:NanumGothicCoding"
         id="path107326" />
      <path
         d="m 27.497065,103.84109 q 0.02822,-0.0113 0.04516,0 0.02258,0.006 0.02258,0.0395 l 0.01129,0.22014 q 0.0056,0.0734 -0.06209,0.1016 -0.141111,0.0621 -0.287867,0.0903 -0.146755,0.0282 -0.299155,0.0282 -0.682977,0 -1.111955,-0.59831 -0.191911,-0.29351 -0.287866,-0.65476 -0.09031,-0.36689 -0.09031,-0.73942 0,-0.33867 0.09031,-0.69991 0.09596,-0.36689 0.287866,-0.6604 0.428978,-0.59831 1.111955,-0.59831 0.1524,0 0.299155,0.0282 0.146756,0.0282 0.287867,0.0903 0.06773,0.0282 0.06209,0.1016 l -0.01129,0.22014 q 0,0.0339 -0.02258,0.0452 -0.01693,0.006 -0.04516,-0.006 -0.129822,-0.0564 -0.265288,-0.0903 -0.129823,-0.0339 -0.3048,-0.0339 -0.485422,0 -0.807155,0.50236 -0.146756,0.24271 -0.220133,0.54751 -0.06773,0.29915 -0.06773,0.55315 0,0.28787 0.06773,0.59267 0.07338,0.29915 0.220133,0.54186 0.321733,0.50236 0.807155,0.50236 0.191911,0 0.316088,-0.0339 0.124178,-0.0339 0.254,-0.0903 z"
         style="font-family:NanumGothicCoding;-inkscape-font-specification:NanumGothicCoding"
         id="path107328" />
      <path
         d="m 30.449097,104.1854 q 0,0.079 -0.07902,0.079 h -0.254 q -0.07902,0 -0.07902,-0.079 v -1.73849 h -1.349022 v 1.73849 q 0,0.079 -0.07902,0.079 h -0.254 q -0.07902,0 -0.07902,-0.079 v -3.69146 q 0,-0.079 0.07902,-0.079 h 0.254 q 0.07902,0 0.07902,0.079 v 1.59737 h 1.349022 v -1.59737 q 0,-0.079 0.07902,-0.079 h 0.254 q 0.07902,0 0.07902,0.079 z"
         style="font-family:NanumGothicCoding;-inkscape-font-specification:NanumGothicCoding"
         id="path107330" />
    </g>
    <g
       aria-label="REC"
       id="RECORD_LABEL"
       style="font-size:5.64444px;line-height:1.25;stroke-width:0.264583">
      <path
         d="m 12.870419,32.90412 q 0,-0.220133 -0.05645,-0.344311 -0.0508,-0.124177 -0.174977,-0.220133 -0.118534,-0.09595 -0.287867,-0.141111 -0.169333,-0.04516 -0.507999,-0.04516 h -0.316089 v 1.523998 h 0.327377 q 0.231423,0 0.4064,-0.04516 0.180622,-0.04516 0.321733,-0.141111 0.141111,-0.09596 0.214489,-0.248355 0.07338,-0.1524 0.07338,-0.338667 z m 0.671688,2.66982 q 0.01129,0.02822 0,0.0508 -0.01129,0.02822 -0.04515,0.02822 h -0.293511 q -0.08467,0 -0.124178,-0.07902 -0.276578,-0.502355 -0.4064,-0.728132 -0.124177,-0.231422 -0.270933,-0.502356 -0.09031,-0.163688 -0.186266,-0.349955 -0.135467,0.02258 -0.265289,0.03387 -0.129822,0.0056 -0.259644,0.0056 h -0.163689 v 1.540932 q 0,0.07902 -0.07902,0.07902 h -0.254 q -0.07902,0 -0.07902,-0.07902 v -3.601152 q 0,-0.06209 0,-0.09596 0.0056,-0.03387 0.02258,-0.0508 0.01693,-0.01693 0.0508,-0.01693 0.03387,-0.0056 0.09596,-0.0056 h 0.756355 q 0.321733,0 0.553155,0.09031 0.237067,0.08467 0.389467,0.237067 0.158044,0.146755 0.231422,0.333022 0.07902,0.186266 0.07902,0.440266 0,0.169333 -0.03951,0.316089 -0.03387,0.141111 -0.141111,0.282222 -0.1016,0.141111 -0.237067,0.237066 -0.129822,0.09031 -0.310444,0.141111 z"
         style="font-family:NanumGothicCoding;-inkscape-font-specification:NanumGothicCoding"
         id="path107191" />
      <path
         d="m 14.20814,35.658607 q -0.118533,0 -0.141111,-0.02258 -0.01693,-0.01693 -0.01693,-0.135466 V 31.95021 q 0,-0.107245 0.01693,-0.124178 0.02258,-0.02258 0.129822,-0.02258 h 1.755421 q 0.07902,0 0.07902,0.07902 v 0.197555 q 0,0.07902 -0.07902,0.07902 H 14.46214 v 1.320799 h 1.405466 q 0.07902,0 0.07902,0.07902 v 0.2032 q 0,0.07902 -0.07902,0.07902 H 14.46214 v 1.456266 h 1.557866 q 0.07902,0 0.07902,0.07902 v 0.2032 q 0,0.07902 -0.07902,0.07902 z"
         style="font-family:NanumGothicCoding;-inkscape-font-specification:NanumGothicCoding"
         id="path107193" />
      <path
         d="m 18.808348,35.22963 q 0.02822,-0.01129 0.04516,0 0.02258,0.0056 0.02258,0.03951 l 0.01129,0.220133 q 0.0056,0.07338 -0.06209,0.1016 -0.141111,0.06209 -0.287867,0.09031 -0.146755,0.02822 -0.299155,0.02822 -0.682977,0 -1.111955,-0.598311 -0.191911,-0.293511 -0.287866,-0.654755 -0.09031,-0.366888 -0.09031,-0.739421 0,-0.338667 0.09031,-0.699911 0.09596,-0.366889 0.287866,-0.6604 0.428978,-0.59831 1.111955,-0.59831 0.1524,0 0.299155,0.02822 0.146756,0.02822 0.287867,0.09031 0.06773,0.02822 0.06209,0.1016 l -0.01129,0.220133 q 0,0.03387 -0.02258,0.04516 -0.01693,0.0056 -0.04516,-0.0056 -0.129822,-0.05644 -0.265288,-0.09031 -0.129822,-0.03387 -0.3048,-0.03387 -0.485422,0 -0.807155,0.502355 -0.146756,0.242711 -0.220133,0.54751 -0.06773,0.299156 -0.06773,0.553156 0,0.287866 0.06773,0.592666 0.07338,0.299155 0.220133,0.541866 0.321733,0.502355 0.807155,0.502355 0.191911,0 0.316089,-0.03387 0.124177,-0.03387 0.253999,-0.09031 z"
         style="font-family:NanumGothicCoding;-inkscape-font-specification:NanumGothicCoding"
         id="path107195" />
    </g>
    <g
       aria-label="R"
       id="AUDIO_INPUT_RIGHT_LABEL"
       style="font-size:5.64444px;line-height:1.25;stroke-width:0.264583">
      <path
         d="m 25.058738,11.781019 q 0,-0.220133 -0.05644,-0.344311 -0.0508,-0.124178 -0.174978,-0.220133 -0.118533,-0.09596 -0.287867,-0.141111 -0.169333,-0.04516 -0.507999,-0.04516 h -0.316089 v 1.523999 h 0.327378 q 0.231422,0 0.406399,-0.04515 0.180622,-0.04516 0.321733,-0.141111 0.141111,-0.09596 0.214489,-0.248356 0.07338,-0.1524 0.07338,-0.338666 z m 0.671688,2.66982 q 0.01129,0.02822 0,0.0508 -0.01129,0.02822 -0.04516,0.02822 H 25.39176 q -0.08467,0 -0.124178,-0.07902 -0.276577,-0.502355 -0.406399,-0.728133 -0.124178,-0.231422 -0.270934,-0.502355 -0.09031,-0.163689 -0.186266,-0.349955 -0.135467,0.02258 -0.265289,0.03387 -0.129822,0.0056 -0.259644,0.0056 h -0.163689 v 1.540932 q 0,0.07902 -0.07902,0.07902 h -0.254 q -0.07902,0 -0.07902,-0.07902 v -3.601153 q 0,-0.06209 0,-0.09596 0.0056,-0.03387 0.02258,-0.0508 0.01693,-0.01693 0.0508,-0.01693 0.03387,-0.0056 0.09596,-0.0056 h 0.756355 q 0.321733,0 0.553155,0.09031 0.237067,0.08467 0.389467,0.237067 0.158044,0.146755 0.231422,0.333022 0.07902,0.186266 0.07902,0.440266 0,0.169333 -0.03951,0.316089 -0.03387,0.141111 -0.141111,0.282222 -0.1016,0.141111 -0.237067,0.237066 -0.129822,0.09031 -0.310444,0.141111 z"
         style="font-family:NanumGothicCoding;-inkscape-font-specification:NanumGothicCoding"
         id="path107128" />
    </g>
    <g
       aria-label="G"
       id="GATE_INPUT_LABEL"
       style="font-size:5.64444px;line-height:1.25;stroke-width:0.264583">
      <path
         d="m 43.010772,12.565987 q 0.07902,0 0.09031,0.02258 0.01693,0.01693 0.01693,0.135467 v 1.619954 q 0,0.06209 -0.02822,0.107244 -0.02258,0.04516 -0.05644,0.06773 -0.169333,0.107244 -0.372533,0.158044 -0.2032,0.0508 -0.366889,0.0508 -0.333022,0 -0.592666,-0.146755 -0.254,-0.146756 -0.4572,-0.4064 -0.197555,-0.265289 -0.310444,-0.620889 -0.107244,-0.361244 -0.112889,-0.818443 0.0056,-0.417689 0.107245,-0.773289 0.1016,-0.355599 0.293511,-0.632177 0.197555,-0.276578 0.474133,-0.428977 0.276577,-0.158045 0.59831,-0.158045 0.169333,0 0.316089,0.03387 0.146755,0.02822 0.333022,0.118533 0.05644,0.02258 0.04516,0.112889 l -0.01693,0.208844 q -0.0056,0.07338 -0.06209,0.0508 -0.174977,-0.09596 -0.327377,-0.129822 -0.146756,-0.03951 -0.287867,-0.03951 -0.237066,0 -0.423333,0.129822 -0.180622,0.124178 -0.333022,0.349955 -0.146755,0.225778 -0.225777,0.519289 -0.07338,0.293511 -0.07902,0.637822 0.0056,0.372533 0.07902,0.666044 0.07902,0.29351 0.225777,0.513644 0.1524,0.214488 0.3556,0.338666 0.2032,0.118533 0.428977,0.118533 0.259645,0 0.383822,-0.107244 v -1.343377 h -0.773288 q -0.05644,0 -0.05644,-0.07902 V 12.64501 q 0,-0.07902 0.05644,-0.07902 z"
         style="font-family:NanumGothicCoding;-inkscape-font-specification:NanumGothicCoding"
         id="path107149" />
    </g>
    <g
       aria-label="T"
       id="TRIGGER_INPUT_LABEL"
       style="font-size:5.64444px;line-height:1.25;stroke-width:0.264583">
      <path
         d="m 51.47523,11.271496 v 3.420531 q 0,0.07902 -0.07902,0.07902 h -0.259645 q -0.07902,0 -0.07902,-0.07902 v -3.420531 h -1.021643 q -0.07902,0 -0.07902,-0.07902 v -0.191911 q 0,-0.07902 0.07902,-0.07902 h 2.472264 q 0.07902,0 0.07902,0.07902 v 0.191911 q 0,0.07902 -0.07902,0.07902 z"
         style="font-family:NanumGothicCoding;-inkscape-font-specification:NanumGothicCoding"
         id="path107170" />
    </g>
    <text
       xml:space="preserve"
       transform="scale(0.26458333)"
       id="text66239"
       style="font-style:normal;font-weight:normal;font-size:40px;line-height:1.25;font-family:sans-serif;white-space:pre;shape-inside:url(#rect66241);fill:#000000;fill-opacity:1;stroke:none"><tspan
         x="141.16992"
         y="103.9082"
         id="tspan965">G</tspan></text>
    <g
       aria-label="L"
       id="AUDIO_OUTPUT_LEFT_LABEL"
       style="font-size:5.64444px;line-height:1.25;fill:#ffffff;stroke-width:0.264583">
      <path
         d="m 45.738702,104.55774 q 0.07902,0 0.07902,0.079 v 0.19756 q 0,0.079 -0.07902,0.079 H 43.99457 q -0.07902,0 -0.124178,-0.006 -0.03951,0 -0.06209,-0.0226 -0.01693,-0.0169 -0.02258,-0.0621 0,-0.0452 0,-0.12418 v -3.55599 q 0,-0.079 0.07902,-0.079 h 0.259644 q 0.07902,0 0.07902,0.079 v 3.41488 z"
         style="font-family:NanumGothicCoding;-inkscape-font-specification:NanumGothicCoding"
         id="path107351" />
    </g>
    <g
       aria-label="R"
       id="AUDIO_OUTPUT_RIGHT_LABEL"
       style="font-size:5.64444px;line-height:1.25;fill:#ffffff;stroke-width:0.264583">
      <path
         d="m 54.168269,102.14878 q 0,-0.22014 -0.05644,-0.34432 -0.0508,-0.12417 -0.174978,-0.22013 -0.118533,-0.0959 -0.287866,-0.14111 -0.169333,-0.0451 -0.508,-0.0451 h -0.316088 v 1.52399 h 0.327377 q 0.231422,0 0.4064,-0.0452 0.180622,-0.0452 0.321733,-0.14111 0.141111,-0.096 0.214489,-0.24836 0.07338,-0.1524 0.07338,-0.33866 z m 0.671689,2.66982 q 0.01129,0.0282 0,0.0508 -0.01129,0.0282 -0.04516,0.0282 h -0.293511 q -0.08467,0 -0.124177,-0.079 -0.276578,-0.50236 -0.4064,-0.72814 -0.124178,-0.23142 -0.270933,-0.50235 -0.09031,-0.16369 -0.186267,-0.34996 -0.135466,0.0226 -0.265288,0.0339 -0.129823,0.006 -0.259645,0.006 h -0.163688 v 1.54094 q 0,0.079 -0.07902,0.079 h -0.253999 q -0.07902,0 -0.07902,-0.079 v -3.60116 q 0,-0.0621 0,-0.096 0.0056,-0.0339 0.02258,-0.0508 0.01693,-0.0169 0.0508,-0.0169 0.03387,-0.006 0.09596,-0.006 h 0.756355 q 0.321733,0 0.553155,0.0903 0.237066,0.0847 0.389466,0.23707 0.158044,0.14675 0.231422,0.33302 0.07902,0.18627 0.07902,0.44027 0,0.16933 -0.03951,0.31608 -0.03387,0.14112 -0.141111,0.28223 -0.1016,0.14111 -0.237066,0.23706 -0.129822,0.0903 -0.310444,0.14111 z"
         style="font-family:NanumGothicCoding;-inkscape-font-specification:NanumGothicCoding"
         id="path107372" />
    </g>
  </g>
  <g
     inkscape:groupmode="layer"
     id="components"
     inkscape:label="components"
     style="display:inline">
    <!-- WAVEFORM_DISPLAY -->
    <rect
       style="display:inline;opacity:0.98;fill:#ffff00;fill-opacity:1;stroke:#ffff00;stroke-width:0.132292"
       id="WAVEFORM_DISPLAY"
       width="164.04167"
       height="105.83333"
       x="68.791664"
       y="10.583333"
       inkscape:label="WAVEFORM_DISPLAY" />
    <!-- AUDIO_OUTPUT_RIGHT -->
    <circle
       style="display:inline;opacity:0.98;fill:#0000ff;fill-opacity:1;stroke:#0000ff;stroke-width:0.134147"
       id="AUDIO_OUTPUT_RIGHT"
       cx="53.81963"
       cy="110.47013"
       r="2.6829267"
       inkscape:label="AUDIO_OUTPUT_RIGHT" />
    <!-- AUDIO_OUTPUT_LEFT -->
    <circle
       style="display:inline;opacity:0.98;fill:#0000ff;fill-opacity:1;stroke:#0000ff;stroke-width:0.134147"
       id="AUDIO_OUTPUT_LEFT"
       cx="44.598358"
       cy="110.41762"
       r="2.6829267"
       inkscape:label="AUDIO_OUTPUT_LEFT" />
    <!-- RECORD_INPUT -->
    <circle
       style="display:inline;opacity:0.98;fill:#00ff00;fill-opacity:1;stroke:#00ff00;stroke-width:0.134147"
       id="RECORD_INPUT"
       cx="30.137686"
       cy="45.411713"
       r="2.6829267"
       inkscape:label="RECORD_INPUT" />
    <!-- STRETCH_KNOB -->
    <circle
       style="display:inline;opacity:0.98;fill:#ff0000;fill-opacity:1;stroke:#ff0000;stroke-width:0.134147"
       id="STRETCH_KNOB"
       cx="26.251114"
       cy="110.54484"
       r="2.6829267"
       inkscape:label="STRETCH_KNOB" />
    <!-- STRETCH_INPUT -->
    <circle
       style="display:inline;opacity:0.98;fill:#00ff00;fill-opacity:1;stroke:#00ff00;stroke-width:0.134147"
       id="STRETCH_INPUT"
       cx="14.347442"
       cy="110.22926"
       r="2.6829267"
       inkscape:label="STRETCH_INPUT" />
    <!-- MODE_INPUT -->
    <circle
       style="display:inline;opacity:0.98;fill:#00ff00;fill-opacity:1;stroke:#00ff00;stroke-width:0.134147"
       id="MODE_INPUT"
       cx="34.325607"
       cy="85.518494"
       r="2.6829267"
       inkscape:label="MODE_INPUT" />
    <!-- MODE_SWITCH -->
    <rect
       style="opacity:0.98;fill:#ff0000;fill-opacity:1;stroke:#ff0000;stroke-width:0.132292"
       id="MODE_SWITCH"
       width="18.520834"
       height="7.9375"
       x="7.4083333"
       y="81.491676"
       inkscape:label="MODE_SWITCH" />
    <!-- SLICE_KNOB -->
    <circle
       style="display:inline;opacity:0.98;fill:#ff0000;fill-opacity:1;stroke:#ff0000;stroke-width:0.134147"
       id="SLICE_KNOB"
       cx="43.002262"
       cy="68.571815"
       r="2.6829267"
       inkscape:label="SLICE_KNOB" />
    <!-- SLICE_INPUT -->
    <circle
       style="display:inline;opacity:0.98;fill:#00ff00;fill-opacity:1;stroke:#00ff00;stroke-width:0.134147"
       id="SLICE_INPUT"
       cx="25.400331"
       cy="66.11274"
       r="2.6829267"
       inkscape:label="SLICE_INPUT" />
    <!-- ENV_KNOB -->
    <circle
       style="display:inline;opacity:0.98;fill:#ff0000;fill-opacity:1;stroke:#ff0000;stroke-width:0.134147"
       id="ENV_KNOB"
       cx="53.899982"
       cy="40.493931"
       r="2.6829267"
       inkscape:label="ENV_KNOB" />
    <!-- ENV_INPUT -->
    <circle
       style="display:inline;opacity:0.98;fill:#00ff00;fill-opacity:1;stroke:#00ff00;stroke-width:0.134147"
       id="ENV_INPUT"
       cx="41.87999"
       cy="40.500439"
       r="2.6829267"
       inkscape:label="ENV_INPUT" />
    <!-- RECORD_LIGHT -->
    <circle
       style="display:inline;opacity:0.98;fill:#ff00ff;fill-opacity:1;stroke:#ff00ff;stroke-width:0.134147"
       id="RECORD_LIGHT"
       cx="30.313101"
       cy="38.218712"
       r="2.6829267"
       inkscape:label="RECORD_LIGHT" />
    <!-- RECORD_BUTTON -->
    <circle
       style="display:inline;opacity:0.98;fill:#ff0000;fill-opacity:1;stroke:#ff0000;stroke-width:0.134147"
       id="RECORD_BUTTON"
       cx="16.89102"
       cy="42.893124"
       r="2.6829267"
       inkscape:label="RECORD_BUTTON" />
    <!-- TRIGGER_INPUT -->
    <circle
       style="display:inline;opacity:0.98;fill:#00ff00;fill-opacity:1;stroke:#00ff00;stroke-width:0.134147"
       id="TRIGGER_INPUT"
       cx="51.479767"
       cy="19.69788"
       r="2.6829267"
       inkscape:label="TRIGGER_INPUT" />
    <!-- GATE_INPUT -->
    <circle
       style="display:inline;opacity:0.98;fill:#00ff00;fill-opacity:1;stroke:#00ff00;stroke-width:0.134147"
       id="GATE_INPUT"
       cx="42.220543"
       cy="19.716013"
       r="2.6829267"
       inkscape:label="GATE_INPUT" />
    <!-- AUDIO_INPUT_LEFT -->
    <ellipse
       style="display:inline;opacity:0.98;fill:#00ff00;fill-opacity:1;stroke:#00ff00;stroke-width:0.13405"
       id="AUDIO_INPUT_LEFT"
       cx="16.037123"
       cy="19.542814"
       inkscape:label="AUDIO_INPUT_LEFT"
       rx="2.681"
       ry="2.6809924" />
    <!-- AUDIO_INPUT_RIGHT -->
    <circle
       style="display:inline;opacity:0.98;fill:#00ff00;fill-opacity:1;stroke:#00ff00;stroke-width:0.134147"
       id="AUDIO_INPUT_RIGHT"
       cx="24.574226"
       cy="19.522699"
       r="2.6829267"
       inkscape:label="AUDIO_INPUT_RIGHT" />
    <text
       xml:space="preserve"
       transform="scale(0.26458333)"
       id="text7155"
       style="font-style:normal;font-variant:normal;font-weight:normal;font-stretch:normal;font-size:40px;line-height:1.25;font-family:NanumGothicCoding;-inkscape-font-specification:NanumGothicCoding;white-space:pre;shape-inside:url(#rect7157);fill:#000000;fill-opacity:1;stroke:none" />
  </g>
</svg>
